<svg xmlns="http://www.w3.org/2000/svg" width="500" height="524" fill="none">
  <path fill="#0ABF53" d="M404.799 357.069v-23.735h-47.731v-23.735h-47.47v-23.996h-23.735v-23.735h47.47v-23.735h47.731v-23.735h40.689v-23.996h54.512v-47.47h-23.996v-47.73h-23.735V71.465h-47.47V47.731h-47.731V23.735H190.402v23.996h-47.47v23.735H95.201v23.735H71.466v47.731H47.73v47.47H23.996v142.932H47.73v47.731h23.735v47.47H95.2v23.735h47.731v23.995h47.47V500h142.931v-23.735h47.731V452.27h47.47v-23.735h23.735v-71.466h-47.47Z"/>
  <path fill="#00112C" d="M261.867 0h-71.465v23.735h71.465V0ZM190.662 23.735h-47.73V47.47h47.73V23.735ZM142.932 47.731H95.201v23.735h47.731V47.731ZM95.2 71.466H71.467V95.2H95.2V71.466ZM71.466 95.2H47.73v47.732h23.735V95.201ZM47.73 142.932H23.997v47.731H47.73v-47.731ZM23.735 190.402H0v142.931h23.735V190.402ZM47.73 333.333H23.997v47.731H47.73v-47.731ZM71.466 381.064H47.73v47.731h23.735v-47.731ZM95.2 428.534H71.467v23.735H95.2v-23.735ZM142.932 452.269H95.201v23.735h47.731v-23.735ZM190.662 476.265h-47.73V500h47.73v-23.735ZM261.867 500h-71.465v23.735h71.465V500ZM261.977 23.918h71.466V.183h-71.466v23.735ZM333.277 47.795h47.731V24.06h-47.731v23.735Z"/>
  <path fill="#00112C" d="M380.771 71.412h47.731V47.677h-47.731v23.735ZM428.715 95.29h23.735V71.553h-23.735V95.29ZM452.593 142.973h23.735v-47.73h-23.735v47.73Z"/>
  <path fill="#00112C" d="M476.209 190.467h23.735v-47.731h-23.735v47.731ZM452.593 428.457h23.735v-47.731h-23.735v47.731ZM428.715 452.406h23.735v-23.735h-23.735v23.735ZM380.771 476.283h47.731v-23.735h-47.731v23.735Z"/>
  <path fill="#00112C" d="M333.277 499.9h47.731v-23.735h-47.731V499.9ZM261.977 523.777h71.466v-23.735h-71.466v23.735ZM309.599 95.2h-47.731v95.202h47.731V95.201Z"/>
  <path fill="#00112C" d="M333.333 119.197h-95.2v47.73h95.2v-47.73Z"/>
  <path fill="#fff" d="M309.598 95.2h-23.735v47.732h23.735V95.201ZM333.333 119.197h-23.735v23.735h23.735v-23.735Z"/>
  <path fill="#00112C" d="M285.863 261.867h-47.73v23.735h47.73v-23.735ZM333.594 238.133h-47.731v23.735h47.731v-23.735ZM381.064 214.397h-47.731v23.735h47.731v-23.735ZM309.599 285.603h-47.731v23.735h47.731v-23.735ZM357.329 309.598h-47.731v23.735h47.731v-23.735ZM404.799 333.333h-47.731v23.736h47.731v-23.736ZM428.795 190.402h-47.731v23.735h47.731v-23.735ZM500 166.667h-71.466v23.735H500v-23.735ZM452.53 357.068h-47.731v23.735h47.731v-23.735Z"/>
</svg>
